[img]http://img195.imageshack.us/img195/4548/horribleq.jpg[/img]
[code]
Horrible Bosses 2011 CAM V2 XViD - IMAGiNE

Ripper ...........: IMAGiNE                                        IMDB Rating.......:7.5/10                             
Video Codec.......: XVID                                         Release Date......:05/08/11
Audio Codec.......:MP3                                           Theatre Date......:08/06/11
Audio Bitrate.....:128                                              Runtime.......:1h 33mn
Subtitles.........:NIL                                                 Language..........:ENGLISH
Resolution...... 720 x 288                                      IMDb URL.......... http://www.imdb.com/title/tt1499658/


DETAILS:

Video
ID                               : 0
Format                           : MPEG-4 Visual
Format profile                   : Advanced Simple@L5
Format settings, BVOP            : 2
Format settings, QPel            : No
Format settings, GMC             : No warppoints
Format settings, Matrix          : Default (MPEG)
Muxing mode                      : Packed bitstream
Codec ID                         : XVID
Codec ID/Hint                    : XviD
Duration                         : 1h 33mn
Bit rate                         : 1 963 Kbps
Width                            : 720 pixels
Height                           : 288 pixels
Display aspect ratio             : 2.500
Frame rate                       : 25.000 fps
Color space                      : YUV
Chroma subsampling               : 4:2:0
Bit depth                        : 8 bits
Scan type                        : Progressive
Compression mode                 : Lossy
Bits/(Pixel*Frame)               : 0.379
Stream size                      : 1.28 GiB (93%)
Writing library                  : XviD 64

Audio
ID                               : 1
Format                           : MPEG Audio
Format version                   : Version 1
Format profile                   : Layer 3
Mode                             : Joint stereo
Mode extension                   : MS Stereo
Codec ID                         : 55
Codec ID/Hint                    : MP3
Duration                         : 1h 33mn
Bit rate mode                    : Constant
Bit rate                         : 128 Kbps
Channel(s)                       : 2 channels
Sampling rate                    : 44.1 KHz
Compression mode                 : Lossy
Stream size                      : 85.7 MiB (6%)
Alignment                        : Split accross interleaves
Interleave, duration             : 40 ms (1.00 video frame)

Plot:
Three friends conspire to murder their awful bosses when they realize they are standing in the way of their happiness.

SOURCES:
VIDEO: .............. Nesnosnie.bossi.2011.CAMRip.PROPER Thanks 
AUDIO: .............. FU Thanks 

NOTES:
IMAGiNE bringing you another release..........
Horrible Bosses CAM V2...........
Ok heres another cam Made a script to sharpen and adjusted the colors Synced the audio from other cam to this encode and added the missing 13 seconds at credits from V1 Enjoy Folks!
[/code]
Screens:
[img]http://img163.imageshack.us/img163/3203/89882202.png[/img]
[img]http://img189.imageshack.us/img189/3875/26117098.png[/img]
[img]http://img34.imageshack.us/img34/9974/98487689.png[/img]
[img]http://img856.imageshack.us/img856/9198/40615099.png[/img]
